<?xml version="1.0" encoding="utf-8"?>
<!-- Generator: Adobe Illustrator 27.4.1, SVG Export Plug-In . SVG Version: 6.00 Build 0)  -->
<svg version="1.1" id="Layer_1" xmlns="http://www.w3.org/2000/svg" xmlns:xlink="http://www.w3.org/1999/xlink" x="0px" y="0px"
	 viewBox="0 0 256 256" style="enable-background:new 0 0 256 256;" xml:space="preserve">
<style type="text/css">
	.st0{fill:#1B3958;}
	.st1{fill-rule:evenodd;clip-rule:evenodd;fill:#9E1F22;}
	.st2{fill-rule:evenodd;clip-rule:evenodd;fill:#D82927;}
	.st3{fill:#E75425;}
	.st4{fill:#F27C2A;}
	.st5{fill:#FCC021;}
</style>
<g>
	<path class="st1" d="M59.7,166l4.1,4.2l22.3-21.8l-4.1-4.2c-12.5-12.8-18.5-29.5-18.2-46H32.6C32.3,123.7,41.9,147.8,59.7,166z"/>
	<path class="st2" d="M63.8,98.2c0.3-16.3,6.7-32.5,19.3-44.8l0,0l-22-22C43.1,49.1,32.9,72.9,32.6,98.2H63.8z"/>
	<path class="st3" d="M61.1,31.4l22,22l0.5-0.4c12-11.5,27.7-17.8,44.4-17.8L128,4c-25,0-48.7,9.6-66.6,27.1
		C61.3,31.2,61.2,31.3,61.1,31.4z"/>
	<path class="st4" d="M128,4l0,31.2l0,0c17.4,0,33.2,7,44.8,18.3l22-22C177.6,14.5,154,4,128,4L128,4z"/>
	<path class="st5" d="M194.8,31.4l-22,22v0c11.7,11.4,19.1,27.2,19.4,44.8h31.2C223.1,72.1,212.2,48.5,194.8,31.4z"/>
	<path class="st0" d="M223.4,98.2h-31.2c0,0.4,0,0.8,0,1.2c0,16.9-6.5,32.8-18.3,44.8l-30.4,31.1v-33c18.2-6.4,31.2-23.8,31.2-44.2
		c0-25.9-21-46.8-46.8-46.8c-25.9,0-46.8,21-46.8,46.8c0,20.4,13,37.7,31.2,44.2V252l83.9-86c17.5-17.9,27.1-41.6,27.1-66.6
		C223.4,99,223.4,98.6,223.4,98.2z"/>
</g>
</svg>
