<?xml version="1.0" encoding="utf-8"?>
<!-- Generator: Adobe Illustrator 27.4.1, SVG Export Plug-In . SVG Version: 6.00 Build 0)  -->
<svg version="1.1" id="Layer_1" xmlns="http://www.w3.org/2000/svg" xmlns:xlink="http://www.w3.org/1999/xlink" x="0px" y="0px"
	 viewBox="0 0 1000 301.5" style="enable-background:new 0 0 1000 301.5;" xml:space="preserve">
<style type="text/css">
	.st0{fill:#1B3958;}
	.st1{fill-rule:evenodd;clip-rule:evenodd;fill:#9E1F22;}
	.st2{fill-rule:evenodd;clip-rule:evenodd;fill:#D82927;}
	.st3{fill:#E75425;}
	.st4{fill:#F27C2A;}
	.st5{fill:#FCC021;}
</style>
<g>
	<g>
		<path class="st0" d="M254.1,115.9h31.3l23.4,84.5c5.4,19.1,9.1,35.6,14.7,54.7h1c5.6-19.1,9.4-35.6,14.7-54.7l23.1-84.5h30.2
			l-51.6,168h-35.1L254.1,115.9z"/>
		<path class="st0" d="M412.3,115.9h100.3V141h-70.7V184h59.9v25.1h-59.9v49.7h73.3v25.1H412.3V115.9z"/>
		<path class="st0" d="M531.2,200.5c0-55,34.1-87.7,76.3-87.7c20.9,0,37.5,10.1,48,21.3l-15.8,19.2c-8.6-8.6-18.5-14.6-31.6-14.6
			c-27.1,0-46.6,23.1-46.6,60.8c0,38.3,17.9,61.6,45.9,61.6c14.8,0,26.2-6.9,35.6-17.3l15.8,18.7c-13.5,15.8-30.9,24.5-52.5,24.5
			C564.4,287,531.2,256.1,531.2,200.5z"/>
		<path class="st0" d="M742.6,118.9c0-10,7.7-16.8,18.1-16.8s18.1,6.8,18.1,16.8c0,9.8-7.7,16.8-18.1,16.8S742.6,128.6,742.6,118.9z
			"/>
		<rect x="745.9" y="157.7" class="st0" width="29.4" height="126.2"/>
		<rect x="682.3" y="112.8" class="st0" width="29.4" height="171.1"/>
		<path class="st0" d="M803.1,157.7h24.1l2.2,17.2h0.8c10.6-11.2,22.7-20.3,38.4-20.3c18.3,0,28.8,8.4,34.6,22.6
			c12-12.8,24.4-22.6,40.3-22.6c26.4,0,38.6,18.3,38.6,50.2v79.1h-29.4v-75.3c0-20.8-6.1-28.6-19.3-28.6c-7.9,0-16.5,5.1-26.2,15.7
			v88.2h-29.4v-75.3c0-20.8-6.1-28.6-19.3-28.6c-7.7,0-16.5,5.1-26.2,15.7v88.2h-29.4V157.7z"/>
	</g>
	<path class="st1" d="M47,189.5l4.4,4.5l23.9-23.5l-4.4-4.5c-13.3-13.8-19.8-31.8-19.5-49.7H18C17.6,143.8,27.9,169.8,47,189.5z"/>
	<path class="st2" d="M51.4,116.2c0.3-17.6,7.2-35.1,20.7-48.4l0,0L48.5,44C29.2,63.2,18.3,88.8,18,116.2H51.4z"/>
	<path class="st3" d="M48.5,44l23.6,23.8l0.5-0.5c12.9-12.4,29.7-19.2,47.5-19.2l0-33.7c-26.8,0-52.2,10.4-71.4,29.3
		C48.7,43.8,48.6,43.9,48.5,44z"/>
	<path class="st4" d="M120.2,14.4l0,33.7l0,0c18.7,0,35.6,7.5,48,19.7L191.8,44C173.3,25.7,148.1,14.4,120.2,14.4L120.2,14.4z"/>
	<path class="st5" d="M191.8,44l-23.6,23.8v0c12.5,12.3,20.4,29.4,20.8,48.4h33.4C222.1,88,210.4,62.5,191.8,44z"/>
	<path class="st0" d="M222.4,116.2H189c0,0.4,0,0.8,0,1.3c0,18.2-6.9,35.4-19.6,48.5l-32.5,33.6V164c19.5-6.9,33.5-25.7,33.5-47.7
		c0-27.9-22.5-50.6-50.2-50.6C92.5,65.6,70,88.3,70,116.2c0,22,14,40.8,33.5,47.7v118.4l89.9-92.9c18.7-19.4,29.1-44.9,29.1-72
		C222.4,117.1,222.4,116.7,222.4,116.2z"/>
</g>
</svg>
