<?xml version="1.0" encoding="UTF-8" standalone="no"?>
<!-- Generator: Adobe Illustrator 27.4.1, SVG Export Plug-In . SVG Version: 6.00 Build 0)  -->

<svg
   version="1.1"
   id="Layer_1"
   x="0px"
   y="0px"
   viewBox="0 0 1000 473.29999"
   xml:space="preserve"
   sodipodi:docname="logo.svg"
   width="1000"
   height="473.29999"
   inkscape:version="1.2.1 (9c6d41e4, 2022-07-14)"
   xmlns:inkscape="http://www.inkscape.org/namespaces/inkscape"
   xmlns:sodipodi="http://sodipodi.sourceforge.net/DTD/sodipodi-0.dtd"
   xmlns="http://www.w3.org/2000/svg"
   xmlns:svg="http://www.w3.org/2000/svg"><defs
   id="defs167" /><sodipodi:namedview
   id="namedview165"
   pagecolor="#505050"
   bordercolor="#ffffff"
   borderopacity="1"
   inkscape:showpageshadow="0"
   inkscape:pageopacity="0"
   inkscape:pagecheckerboard="1"
   inkscape:deskcolor="#505050"
   showgrid="false"
   inkscape:zoom="0.7827529"
   inkscape:cx="569.14513"
   inkscape:cy="222.29237"
   inkscape:window-width="1742"
   inkscape:window-height="648"
   inkscape:window-x="0"
   inkscape:window-y="25"
   inkscape:window-maximized="0"
   inkscape:current-layer="Layer_1" />
<style
   type="text/css"
   id="style132">
	.st0{fill:#1B3958;}
	.st1{fill-rule:evenodd;clip-rule:evenodd;fill:#9E1F22;}
	.st2{fill-rule:evenodd;clip-rule:evenodd;fill:#D82927;}
	.st3{fill:#E75425;}
	.st4{fill:#F27C2A;}
	.st5{fill:#FCC021;}
</style>
<g
   id="g162">
	<g
   id="g148">
		<path
   class="st0"
   d="m 254.1,115.9 h 31.3 l 23.4,84.5 c 5.4,19.1 9.1,35.6 14.7,54.7 h 1 c 5.6,-19.1 9.4,-35.6 14.7,-54.7 l 23.1,-84.5 h 30.2 l -51.6,168 h -35.1 z"
   id="path134" />
		<path
   class="st0"
   d="M 412.3,115.9 H 512.6 V 141 h -70.7 v 43 h 59.9 v 25.1 h -59.9 v 49.7 h 73.3 v 25.1 H 412.3 Z"
   id="path136" />
		<path
   class="st0"
   d="m 531.2,200.5 c 0,-55 34.1,-87.7 76.3,-87.7 20.9,0 37.5,10.1 48,21.3 l -15.8,19.2 c -8.6,-8.6 -18.5,-14.6 -31.6,-14.6 -27.1,0 -46.6,23.1 -46.6,60.8 0,38.3 17.9,61.6 45.9,61.6 14.8,0 26.2,-6.9 35.6,-17.3 l 15.8,18.7 c -13.5,15.8 -30.9,24.5 -52.5,24.5 -41.9,0 -75.1,-30.9 -75.1,-86.5 z"
   id="path138" />
		<path
   class="st0"
   d="m 742.6,118.9 c 0,-10 7.7,-16.8 18.1,-16.8 10.4,0 18.1,6.8 18.1,16.8 0,9.8 -7.7,16.8 -18.1,16.8 -10.4,0 -18.1,-7.1 -18.1,-16.8 z"
   id="path140" />
		<rect
   x="745.90002"
   y="157.7"
   class="st0"
   width="29.4"
   height="126.2"
   id="rect142" />
		<rect
   x="682.29999"
   y="112.8"
   class="st0"
   width="29.4"
   height="171.10001"
   id="rect144" />
		<path
   class="st0"
   d="m 803.1,157.7 h 24.1 l 2.2,17.2 h 0.8 c 10.6,-11.2 22.7,-20.3 38.4,-20.3 18.3,0 28.8,8.4 34.6,22.6 12,-12.8 24.4,-22.6 40.3,-22.6 26.4,0 38.6,18.3 38.6,50.2 v 79.1 h -29.4 v -75.3 c 0,-20.8 -6.1,-28.6 -19.3,-28.6 -7.9,0 -16.5,5.1 -26.2,15.7 v 88.2 h -29.4 v -75.3 c 0,-20.8 -6.1,-28.6 -19.3,-28.6 -7.7,0 -16.5,5.1 -26.2,15.7 v 88.2 H 802.9 V 157.7 Z"
   id="path146" />
	</g>
	<path
   class="st1"
   d="M 47,189.5 51.4,194 75.3,170.5 70.9,166 C 57.6,152.2 51.1,134.2 51.4,116.3 H 18 c -0.4,27.5 9.9,53.5 29,73.2 z"
   id="path150" />
	<path
   class="st2"
   d="M 51.4,116.2 C 51.7,98.6 58.6,81.1 72.1,67.8 v 0 L 48.5,44 C 29.2,63.2 18.3,88.8 18,116.2 Z"
   id="path152" />
	<path
   class="st3"
   d="m 48.5,44 23.6,23.8 0.5,-0.5 C 85.5,54.9 102.3,48.1 120.1,48.1 V 14.4 c -26.8,0 -52.2,10.4 -71.4,29.3 0,0.1 -0.1,0.2 -0.2,0.3 z"
   id="path154" />
	<path
   class="st4"
   d="m 120.2,14.4 v 33.7 0 c 18.7,0 35.6,7.5 48,19.7 L 191.8,44 C 173.3,25.7 148.1,14.4 120.2,14.4 Z"
   id="path156" />
	<path
   class="st5"
   d="m 191.8,44 -23.6,23.8 v 0 c 12.5,12.3 20.4,29.4 20.8,48.4 h 33.4 C 222.1,88 210.4,62.5 191.8,44 Z"
   id="path158" />
	<path
   class="st0"
   d="M 222.4,116.2 H 189 c 0,0.4 0,0.8 0,1.3 0,18.2 -6.9,35.4 -19.6,48.5 l -32.5,33.6 V 164 c 19.5,-6.9 33.5,-25.7 33.5,-47.7 0,-27.9 -22.5,-50.6 -50.2,-50.6 C 92.5,65.6 70,88.3 70,116.2 c 0,22 14,40.8 33.5,47.7 v 118.4 l 89.9,-92.9 c 18.7,-19.4 29.1,-44.9 29.1,-72 -0.1,-0.3 -0.1,-0.7 -0.1,-1.2 z"
   id="path160" />
</g>
</svg>
